<mxfile host="Electron" agent="Mozilla/5.0 (Windows NT 10.0; Win64; x64) AppleWebKit/537.36 (KHTML, like Gecko) draw.io/28.0.4 Chrome/138.0.7204.97 Electron/37.2.1 Safari/537.36" version="28.0.4">
  <diagram name="Page-1" id="1hs5s9o86z9CkmKRlvlU">
    <mxGraphModel dx="705" dy="608" grid="0" gridSize="10" guides="1" tooltips="1" connect="1" arrows="1" fold="1" page="1" pageScale="1" pageWidth="827" pageHeight="1169" math="0" shadow="0">
      <root>
        <mxCell id="0" />
        <mxCell id="1" parent="0" />
        <mxCell id="7iG0vqHwmoGRybZ-jgmP-1" value="" style="rounded=0;whiteSpace=wrap;html=1;movable=1;resizable=1;rotatable=1;deletable=1;editable=1;locked=0;connectable=1;" parent="1" vertex="1">
          <mxGeometry x="324" y="141" width="417" height="500" as="geometry" />
        </mxCell>
        <mxCell id="m7XsVHhVL0BLHQTgYPTq-2" value="caissier" style="shape=umlActor;verticalLabelPosition=bottom;verticalAlign=top;html=1;" parent="1" vertex="1">
          <mxGeometry x="72" y="279" width="27" height="60" as="geometry" />
        </mxCell>
        <mxCell id="m7XsVHhVL0BLHQTgYPTq-47" value="" style="endArrow=none;html=1;rounded=0;entryX=0;entryY=1;entryDx=0;entryDy=0;endFill=0;" parent="1" source="m7XsVHhVL0BLHQTgYPTq-2" target="aVOMbRxGNV0zR2DFLOBA-20" edge="1">
          <mxGeometry width="50" height="50" relative="1" as="geometry">
            <mxPoint x="500" y="375" as="sourcePoint" />
            <mxPoint x="664" y="366" as="targetPoint" />
          </mxGeometry>
        </mxCell>
        <mxCell id="m7XsVHhVL0BLHQTgYPTq-48" value="" style="endArrow=none;html=1;rounded=0;entryX=0.018;entryY=0.26;entryDx=0;entryDy=0;exitX=0.722;exitY=0.364;exitDx=0;exitDy=0;exitPerimeter=0;endFill=0;entryPerimeter=0;" parent="1" source="m7XsVHhVL0BLHQTgYPTq-57" target="aVOMbRxGNV0zR2DFLOBA-28" edge="1">
          <mxGeometry width="50" height="50" relative="1" as="geometry">
            <mxPoint x="640" y="415" as="sourcePoint" />
            <mxPoint x="804" y="406" as="targetPoint" />
            <Array as="points" />
          </mxGeometry>
        </mxCell>
        <mxCell id="m7XsVHhVL0BLHQTgYPTq-57" value="responsable" style="shape=umlActor;verticalLabelPosition=bottom;verticalAlign=top;html=1;" parent="1" vertex="1">
          <mxGeometry x="72" y="482" width="30" height="60" as="geometry" />
        </mxCell>
        <mxCell id="m7XsVHhVL0BLHQTgYPTq-59" value="" style="triangle;whiteSpace=wrap;html=1;rotation=-90;" parent="1" vertex="1">
          <mxGeometry x="69" y="359.93" width="33" height="40" as="geometry" />
        </mxCell>
        <mxCell id="m7XsVHhVL0BLHQTgYPTq-60" value="" style="endArrow=none;html=1;rounded=0;entryX=0;entryY=0.5;entryDx=0;entryDy=0;exitX=0.5;exitY=0;exitDx=0;exitDy=0;exitPerimeter=0;" parent="1" source="m7XsVHhVL0BLHQTgYPTq-57" target="m7XsVHhVL0BLHQTgYPTq-59" edge="1">
          <mxGeometry width="50" height="50" relative="1" as="geometry">
            <mxPoint x="62" y="401" as="sourcePoint" />
            <mxPoint x="243" y="427" as="targetPoint" />
          </mxGeometry>
        </mxCell>
        <mxCell id="7iG0vqHwmoGRybZ-jgmP-2" value="gestion des impressions - vente" style="text;html=1;align=center;verticalAlign=middle;whiteSpace=wrap;rounded=0;fontSize=16;fontStyle=1" parent="1" vertex="1">
          <mxGeometry x="332" y="141" width="229" height="30" as="geometry" />
        </mxCell>
        <mxCell id="aVOMbRxGNV0zR2DFLOBA-22" value="" style="endArrow=classic;html=1;rounded=0;exitX=0.283;exitY=0.927;exitDx=0;exitDy=0;exitPerimeter=0;entryX=0.327;entryY=0.001;entryDx=0;entryDy=0;entryPerimeter=0;dashed=1;dashPattern=8 8;" parent="1" source="aVOMbRxGNV0zR2DFLOBA-20" target="aVOMbRxGNV0zR2DFLOBA-21" edge="1">
          <mxGeometry width="50" height="50" relative="1" as="geometry">
            <mxPoint x="459" y="327.875" as="sourcePoint" />
            <mxPoint x="566" y="243.875" as="targetPoint" />
          </mxGeometry>
        </mxCell>
        <mxCell id="aVOMbRxGNV0zR2DFLOBA-23" value="&quot;include&quot;" style="edgeLabel;html=1;align=center;verticalAlign=middle;resizable=0;points=[];" parent="aVOMbRxGNV0zR2DFLOBA-22" vertex="1" connectable="0">
          <mxGeometry x="0.0515" y="5" relative="1" as="geometry">
            <mxPoint as="offset" />
          </mxGeometry>
        </mxCell>
        <mxCell id="aVOMbRxGNV0zR2DFLOBA-29" value="" style="endArrow=classic;html=1;rounded=0;exitX=0.271;exitY=0.051;exitDx=0;exitDy=0;exitPerimeter=0;entryX=0.219;entryY=0.903;entryDx=0;entryDy=0;entryPerimeter=0;dashed=1;dashPattern=8 8;" parent="1" source="aVOMbRxGNV0zR2DFLOBA-28" target="aVOMbRxGNV0zR2DFLOBA-21" edge="1">
          <mxGeometry width="50" height="50" relative="1" as="geometry">
            <mxPoint x="394" y="492.875" as="sourcePoint" />
            <mxPoint x="364" y="383" as="targetPoint" />
            <Array as="points" />
          </mxGeometry>
        </mxCell>
        <mxCell id="aVOMbRxGNV0zR2DFLOBA-30" value="&quot;include&quot;" style="edgeLabel;html=1;align=center;verticalAlign=middle;resizable=0;points=[];" parent="aVOMbRxGNV0zR2DFLOBA-29" vertex="1" connectable="0">
          <mxGeometry x="0.0515" y="5" relative="1" as="geometry">
            <mxPoint as="offset" />
          </mxGeometry>
        </mxCell>
        <mxCell id="aVOMbRxGNV0zR2DFLOBA-35" value="" style="group" parent="1" vertex="1" connectable="0">
          <mxGeometry x="361" y="321" width="339" height="83.875" as="geometry" />
        </mxCell>
        <mxCell id="aVOMbRxGNV0zR2DFLOBA-14" value="" style="shape=ellipse;container=1;horizontal=1;horizontalStack=0;resizeParent=1;resizeParentMax=0;resizeLast=0;html=1;dashed=0;collapsible=0;" parent="aVOMbRxGNV0zR2DFLOBA-35" vertex="1">
          <mxGeometry x="219" y="48.875" width="120" height="35" as="geometry" />
        </mxCell>
        <mxCell id="aVOMbRxGNV0zR2DFLOBA-15" value="logout" style="html=1;strokeColor=none;fillColor=none;align=center;verticalAlign=middle;rotatable=0;whiteSpace=wrap;" parent="aVOMbRxGNV0zR2DFLOBA-14" vertex="1">
          <mxGeometry y="13.125" width="120" height="8.75" as="geometry" />
        </mxCell>
        <mxCell id="aVOMbRxGNV0zR2DFLOBA-16" value="" style="endArrow=classic;html=1;rounded=0;entryX=0;entryY=0.5;entryDx=0;entryDy=0;endFill=1;dashed=1;dashPattern=8 8;exitX=0.987;exitY=0.226;exitDx=0;exitDy=0;exitPerimeter=0;" parent="aVOMbRxGNV0zR2DFLOBA-35" source="aVOMbRxGNV0zR2DFLOBA-21" target="aVOMbRxGNV0zR2DFLOBA-33" edge="1">
          <mxGeometry width="50" height="50" relative="1" as="geometry">
            <mxPoint x="-95" y="69.875" as="sourcePoint" />
            <mxPoint x="213.20000000000005" y="15.75" as="targetPoint" />
            <Array as="points">
              <mxPoint x="136" y="15.875" />
            </Array>
          </mxGeometry>
        </mxCell>
        <mxCell id="aVOMbRxGNV0zR2DFLOBA-17" value="&quot;include&quot;" style="edgeLabel;html=1;align=center;verticalAlign=middle;resizable=0;points=[];" parent="aVOMbRxGNV0zR2DFLOBA-16" vertex="1" connectable="0">
          <mxGeometry x="0.0133" relative="1" as="geometry">
            <mxPoint as="offset" />
          </mxGeometry>
        </mxCell>
        <mxCell id="aVOMbRxGNV0zR2DFLOBA-18" value="" style="endArrow=classic;html=1;rounded=0;entryX=0;entryY=0.5;entryDx=0;entryDy=0;endFill=1;dashed=1;dashPattern=8 8;exitX=0.933;exitY=0.753;exitDx=0;exitDy=0;exitPerimeter=0;" parent="aVOMbRxGNV0zR2DFLOBA-35" source="aVOMbRxGNV0zR2DFLOBA-21" target="aVOMbRxGNV0zR2DFLOBA-15" edge="1">
          <mxGeometry width="50" height="50" relative="1" as="geometry">
            <mxPoint x="98" y="85.875" as="sourcePoint" />
            <mxPoint x="235" y="127.875" as="targetPoint" />
            <Array as="points">
              <mxPoint x="140" y="66.875" />
            </Array>
          </mxGeometry>
        </mxCell>
        <mxCell id="aVOMbRxGNV0zR2DFLOBA-19" value="&quot;include&quot;" style="edgeLabel;html=1;align=center;verticalAlign=middle;resizable=0;points=[];" parent="aVOMbRxGNV0zR2DFLOBA-18" vertex="1" connectable="0">
          <mxGeometry x="-0.0945" y="2" relative="1" as="geometry">
            <mxPoint x="13" y="-2" as="offset" />
          </mxGeometry>
        </mxCell>
        <mxCell id="aVOMbRxGNV0zR2DFLOBA-21" value="authentifier" style="ellipse;whiteSpace=wrap;html=1;" parent="aVOMbRxGNV0zR2DFLOBA-35" vertex="1">
          <mxGeometry y="16.875" width="120" height="38" as="geometry" />
        </mxCell>
        <mxCell id="aVOMbRxGNV0zR2DFLOBA-33" value="" style="shape=ellipse;container=1;horizontal=1;horizontalStack=0;resizeParent=1;resizeParentMax=0;resizeLast=0;html=1;dashed=0;collapsible=0;" parent="aVOMbRxGNV0zR2DFLOBA-35" vertex="1">
          <mxGeometry x="217" width="120" height="35" as="geometry" />
        </mxCell>
        <mxCell id="aVOMbRxGNV0zR2DFLOBA-34" value="login" style="html=1;strokeColor=none;fillColor=none;align=center;verticalAlign=middle;rotatable=0;whiteSpace=wrap;" parent="aVOMbRxGNV0zR2DFLOBA-33" vertex="1">
          <mxGeometry y="13.125" width="120" height="8.75" as="geometry" />
        </mxCell>
        <mxCell id="aVOMbRxGNV0zR2DFLOBA-36" value="" style="group" parent="1" vertex="1" connectable="0">
          <mxGeometry x="334" y="203" width="325" height="92.12" as="geometry" />
        </mxCell>
        <mxCell id="m7XsVHhVL0BLHQTgYPTq-14" value="" style="shape=ellipse;container=1;horizontal=1;horizontalStack=0;resizeParent=1;resizeParentMax=0;resizeLast=0;html=1;dashed=0;collapsible=0;" parent="aVOMbRxGNV0zR2DFLOBA-36" vertex="1">
          <mxGeometry x="241" y="1.0600000000000058" width="120" height="60" as="geometry" />
        </mxCell>
        <mxCell id="m7XsVHhVL0BLHQTgYPTq-15" value="impression ticket&lt;div&gt;&amp;nbsp;de caisse&lt;/div&gt;" style="html=1;strokeColor=none;fillColor=none;align=center;verticalAlign=middle;rotatable=0;whiteSpace=wrap;" parent="m7XsVHhVL0BLHQTgYPTq-14" vertex="1">
          <mxGeometry x="2" y="22.50142857142857" width="120" height="15" as="geometry" />
        </mxCell>
        <mxCell id="aVOMbRxGNV0zR2DFLOBA-20" value="gérer les impressions&lt;div&gt;&amp;nbsp;- caisse&lt;/div&gt;" style="ellipse;whiteSpace=wrap;html=1;" parent="aVOMbRxGNV0zR2DFLOBA-36" vertex="1">
          <mxGeometry y="8" width="128" height="46.13" as="geometry" />
        </mxCell>
        <mxCell id="aVOMbRxGNV0zR2DFLOBA-26" value="" style="endArrow=classic;html=1;rounded=0;exitX=1;exitY=0.5;exitDx=0;exitDy=0;entryX=0;entryY=0.5;entryDx=0;entryDy=0;dashed=1;dashPattern=8 8;" parent="aVOMbRxGNV0zR2DFLOBA-36" source="aVOMbRxGNV0zR2DFLOBA-20" target="m7XsVHhVL0BLHQTgYPTq-14" edge="1">
          <mxGeometry width="50" height="50" relative="1" as="geometry">
            <mxPoint x="118" y="258.12" as="sourcePoint" />
            <mxPoint x="116" y="154.12" as="targetPoint" />
          </mxGeometry>
        </mxCell>
        <mxCell id="aVOMbRxGNV0zR2DFLOBA-27" value="&quot;include&quot;" style="edgeLabel;html=1;align=center;verticalAlign=middle;resizable=0;points=[];" parent="aVOMbRxGNV0zR2DFLOBA-26" vertex="1" connectable="0">
          <mxGeometry x="0.0515" y="5" relative="1" as="geometry">
            <mxPoint as="offset" />
          </mxGeometry>
        </mxCell>
        <mxCell id="aVOMbRxGNV0zR2DFLOBA-37" value="" style="group" parent="1" vertex="1" connectable="0">
          <mxGeometry x="334.29999999999995" y="493" width="365.70000000000005" height="111.00999999999999" as="geometry" />
        </mxCell>
        <mxCell id="m7XsVHhVL0BLHQTgYPTq-19" value="" style="shape=ellipse;container=1;horizontal=1;horizontalStack=0;resizeParent=1;resizeParentMax=0;resizeLast=0;html=1;dashed=0;collapsible=0;" parent="aVOMbRxGNV0zR2DFLOBA-37" vertex="1">
          <mxGeometry x="245.70000000000005" width="120" height="44" as="geometry" />
        </mxCell>
        <mxCell id="m7XsVHhVL0BLHQTgYPTq-20" value="impression listing de la vente" style="html=1;strokeColor=none;fillColor=none;align=center;verticalAlign=middle;rotatable=0;whiteSpace=wrap;" parent="m7XsVHhVL0BLHQTgYPTq-19" vertex="1">
          <mxGeometry x="2" y="21.267714285714284" width="120" height="11" as="geometry" />
        </mxCell>
        <mxCell id="m7XsVHhVL0BLHQTgYPTq-24" value="" style="shape=ellipse;container=1;horizontal=1;horizontalStack=0;resizeParent=1;resizeParentMax=0;resizeLast=0;html=1;dashed=0;collapsible=0;" parent="aVOMbRxGNV0zR2DFLOBA-37" vertex="1">
          <mxGeometry x="249.70000000000005" y="51.00999999999999" width="116" height="60" as="geometry" />
        </mxCell>
        <mxCell id="m7XsVHhVL0BLHQTgYPTq-25" value="impression listing de vente de la journée" style="html=1;strokeColor=none;fillColor=none;align=center;verticalAlign=middle;rotatable=0;whiteSpace=wrap;" parent="m7XsVHhVL0BLHQTgYPTq-24" vertex="1">
          <mxGeometry x="2" y="22.5" width="116" height="15" as="geometry" />
        </mxCell>
        <mxCell id="m7XsVHhVL0BLHQTgYPTq-49" value="&quot;extend&quot;" style="endArrow=classic;html=1;rounded=0;entryX=0;entryY=0.5;entryDx=0;entryDy=0;endFill=1;exitX=0.739;exitY=1.061;exitDx=0;exitDy=0;exitPerimeter=0;dashed=1;dashPattern=8 8;" parent="aVOMbRxGNV0zR2DFLOBA-37" source="aVOMbRxGNV0zR2DFLOBA-28" target="m7XsVHhVL0BLHQTgYPTq-24" edge="1">
          <mxGeometry width="50" height="50" relative="1" as="geometry">
            <mxPoint x="-343" y="-204" as="sourcePoint" />
            <mxPoint x="-19" y="116" as="targetPoint" />
            <Array as="points">
              <mxPoint x="111" y="81" />
            </Array>
          </mxGeometry>
        </mxCell>
        <mxCell id="aVOMbRxGNV0zR2DFLOBA-28" value="gérer les impressions&lt;div&gt;&amp;nbsp;- comptabilité&lt;/div&gt;" style="ellipse;whiteSpace=wrap;html=1;" parent="aVOMbRxGNV0zR2DFLOBA-37" vertex="1">
          <mxGeometry y="4" width="128" height="47.01" as="geometry" />
        </mxCell>
        <mxCell id="aVOMbRxGNV0zR2DFLOBA-31" value="&quot;extend&quot;" style="endArrow=classic;html=1;rounded=0;exitX=0.954;exitY=0.203;exitDx=0;exitDy=0;exitPerimeter=0;dashed=1;dashPattern=8 8;" parent="aVOMbRxGNV0zR2DFLOBA-37" source="aVOMbRxGNV0zR2DFLOBA-28" target="m7XsVHhVL0BLHQTgYPTq-19" edge="1">
          <mxGeometry width="50" height="50" relative="1" as="geometry">
            <mxPoint x="135.00400000000013" y="18.940200000000004" as="sourcePoint" />
            <mxPoint x="99.70000000000005" y="-141" as="targetPoint" />
            <Array as="points">
              <mxPoint x="182" y="22" />
            </Array>
          </mxGeometry>
        </mxCell>
        <mxCell id="aVOMbRxGNV0zR2DFLOBA-38" value="logiciel de vente - caisse" style="swimlane;whiteSpace=wrap;html=1;startSize=50;" parent="1" vertex="1">
          <mxGeometry x="45" y="141" width="113" height="112" as="geometry">
            <mxRectangle x="48" y="156" width="166" height="26" as="alternateBounds" />
          </mxGeometry>
        </mxCell>
        <mxCell id="aVOMbRxGNV0zR2DFLOBA-39" value="" style="endArrow=none;html=1;rounded=0;exitX=1;exitY=0.5;exitDx=0;exitDy=0;entryX=0;entryY=0.5;entryDx=0;entryDy=0;" parent="1" source="aVOMbRxGNV0zR2DFLOBA-38" target="aVOMbRxGNV0zR2DFLOBA-20" edge="1">
          <mxGeometry width="50" height="50" relative="1" as="geometry">
            <mxPoint x="619" y="454" as="sourcePoint" />
            <mxPoint x="669" y="404" as="targetPoint" />
          </mxGeometry>
        </mxCell>
        <mxCell id="aVOMbRxGNV0zR2DFLOBA-40" value="impression automatique" style="rounded=0;whiteSpace=wrap;html=1;" parent="1" vertex="1">
          <mxGeometry x="154" y="70" width="120" height="60" as="geometry" />
        </mxCell>
        <mxCell id="aVOMbRxGNV0zR2DFLOBA-41" value="" style="endArrow=none;dashed=1;html=1;rounded=0;" parent="1" source="aVOMbRxGNV0zR2DFLOBA-40" edge="1">
          <mxGeometry width="50" height="50" relative="1" as="geometry">
            <mxPoint x="512" y="425" as="sourcePoint" />
            <mxPoint x="278" y="214" as="targetPoint" />
            <Array as="points">
              <mxPoint x="267" y="164" />
            </Array>
          </mxGeometry>
        </mxCell>
        <mxCell id="aVOMbRxGNV0zR2DFLOBA-42" value="impression manuelle" style="rounded=0;whiteSpace=wrap;html=1;" parent="1" vertex="1">
          <mxGeometry x="161" y="377" width="120" height="52" as="geometry" />
        </mxCell>
        <mxCell id="aVOMbRxGNV0zR2DFLOBA-43" value="" style="endArrow=none;dashed=1;html=1;rounded=0;" parent="1" edge="1">
          <mxGeometry width="50" height="50" relative="1" as="geometry">
            <mxPoint x="201" y="376" as="sourcePoint" />
            <mxPoint x="203" y="286" as="targetPoint" />
          </mxGeometry>
        </mxCell>
        <mxCell id="aVOMbRxGNV0zR2DFLOBA-44" value="" style="endArrow=none;dashed=1;html=1;rounded=0;" parent="1" edge="1">
          <mxGeometry width="50" height="50" relative="1" as="geometry">
            <mxPoint x="196" y="504" as="sourcePoint" />
            <mxPoint x="202" y="430" as="targetPoint" />
          </mxGeometry>
        </mxCell>
      </root>
    </mxGraphModel>
  </diagram>
</mxfile>
